<svg width="40" height="40" viewBox="0 0 40 40" fill="none" xmlns="http://www.w3.org/2000/svg">
<path d="M20 0C31.0457 0 40 8.95429 40 20C40 31.0457 31.0457 40 20 40C8.95429 40 0 31.0457 0 20C0 8.95429 8.95429 0 20 0ZM29.5814 18.1529C29.8417 17.8834 29.9856 17.5226 29.9824 17.148C29.9791 16.7734 29.8289 16.4151 29.564 16.1503C29.2992 15.8854 28.9409 15.7352 28.5663 15.7319C28.1917 15.7286 27.8309 15.8726 27.5614 16.1329L20 23.6943L12.4386 16.1329C12.1691 15.8726 11.8083 15.7286 11.4337 15.7319C11.0591 15.7352 10.7008 15.8854 10.436 16.1503C10.1711 16.4151 10.0209 16.7734 10.0176 17.148C10.0144 17.5226 10.1583 17.8834 10.4186 18.1529L18.8157 26.5514L18.8629 26.5914C18.901 26.6248 18.939 26.6595 18.9771 26.6957C19.1113 26.8299 19.2708 26.9361 19.4465 27.0079C19.6221 27.0798 19.8103 27.1159 20 27.1143C20.3714 27.1186 20.6914 26.9757 21.0257 26.6957C21.0971 26.6371 21.1114 26.6243 21.1829 26.5529V26.55L29.5814 18.1529Z" fill="white"/>
</svg>
