<svg width="30" height="30" viewBox="0 0 30 30" fill="none" xmlns="http://www.w3.org/2000/svg">
<path d="M25.3838 2.49318C23.4837 1.33099 21.4265 0.487459 19.2836 8.6224e-05C19.2648 -0.000702201 19.2461 0.00392424 19.2289 0.0136403C19.2116 0.0233565 19.1961 0.0379263 19.1836 0.0563219C18.9265 0.67491 18.6265 1.48095 18.4265 2.09954C16.1535 1.64965 13.842 1.64965 11.5691 2.09954C11.3691 1.4622 11.0691 0.67491 10.7977 0.0563219C10.7834 0.0188317 10.7405 8.6224e-05 10.6977 8.6224e-05C8.55476 0.487459 6.51184 1.33099 4.5975 2.49318C4.58322 2.49318 4.56893 2.51193 4.55465 2.53067C0.668824 10.1599 -0.402634 17.583 0.125952 24.9311C0.125952 24.9685 0.140238 25.006 0.16881 25.0248C2.74031 27.4991 5.21181 28.9987 7.65473 29.9922C7.69759 30.011 7.74045 29.9922 7.75473 29.9547C8.32618 28.9238 8.84048 27.8365 9.28335 26.6931C9.31192 26.6181 9.28335 26.5431 9.2262 26.5244C8.41189 26.112 7.64044 25.6246 6.88328 25.0623C6.82614 25.0248 6.82614 24.9123 6.869 24.8561C7.02614 24.7061 7.18329 24.5374 7.34044 24.3875C7.36901 24.35 7.41187 24.35 7.44044 24.3687C12.3549 27.3117 17.655 27.3117 22.5123 24.3687C22.5409 24.35 22.5837 24.35 22.6123 24.3875C22.7694 24.5562 22.9266 24.7061 23.0837 24.8748C23.1409 24.9311 23.1409 25.0435 23.0694 25.081C22.3266 25.6621 21.5408 26.1307 20.7265 26.5431C20.6694 26.5619 20.6551 26.6556 20.6694 26.7118C21.1265 27.8553 21.6408 28.9425 22.198 29.9735C22.2408 29.9922 22.2837 30.011 22.3266 29.9922C24.7838 28.9987 27.2553 27.4991 29.8268 25.0248C29.8553 25.006 29.8696 24.9685 29.8696 24.9311C30.4982 16.4395 28.8267 9.07271 25.4409 2.53067C25.4266 2.51193 25.4124 2.49318 25.3838 2.49318ZM10.0262 20.451C8.55476 20.451 7.32615 18.6702 7.32615 16.477C7.32615 14.2838 8.52618 12.5031 10.0262 12.5031C11.5406 12.5031 12.7406 14.3026 12.7263 16.477C12.7263 18.6702 11.5263 20.451 10.0262 20.451ZM19.9836 20.451C18.5122 20.451 17.2836 18.6702 17.2836 16.477C17.2836 14.2838 18.4836 12.5031 19.9836 12.5031C21.498 12.5031 22.698 14.3026 22.6837 16.477C22.6837 18.6702 21.498 20.451 19.9836 20.451Z" fill="white"/>
</svg>
