<svg width="30" height="30" viewBox="0 0 30 30" fill="none" xmlns="http://www.w3.org/2000/svg">
<mask id="mask0_155_17" style="mask-type:luminance" maskUnits="userSpaceOnUse" x="0" y="0" width="30" height="30">
<path d="M0 0H30V30H0V0Z" fill="white"/>
</mask>
<g mask="url(#mask0_155_17)">
<path d="M17.8263 0.221545L16.9263 0.0952286C14.2215 -0.295312 11.4613 0.0910528 8.96769 1.20928C6.47404 2.32751 4.34963 4.13153 2.84211 6.41102C1.23814 8.58993 0.281977 11.1774 0.0836514 13.8758C-0.114674 16.5741 0.452899 19.2736 1.72105 21.6636C1.85084 21.9032 1.93164 22.1662 1.95875 22.4372C1.98586 22.7083 1.95873 22.9821 1.87895 23.2426C1.23158 25.4689 0.631579 27.711 0 30.0637L0.789474 29.8268C2.92105 29.2584 5.05263 28.69 7.18421 28.1689C7.63412 28.0754 8.10176 28.1194 8.52632 28.2952C10.4387 29.2286 12.5287 29.7421 14.6559 29.8012C16.7831 29.8604 18.8983 29.4638 20.8596 28.6382C22.821 27.8126 24.583 26.577 26.0275 25.0144C27.472 23.4517 28.5656 21.5981 29.2348 19.5781C29.9039 17.558 30.1333 15.4182 29.9074 13.3022C29.6816 11.1862 29.0057 9.14298 27.9252 7.30969C26.8447 5.47639 25.3845 3.89543 23.6427 2.6729C21.9009 1.45037 19.9177 0.614552 17.8263 0.221545ZM21.8053 20.9373C21.2314 21.4511 20.5316 21.8036 19.7772 21.9589C19.0228 22.1143 18.2407 22.0669 17.5105 21.8215C14.2019 20.8899 11.3315 18.814 9.41053 15.9636C8.67677 14.9555 8.08689 13.8502 7.65789 12.6794C7.42556 12.0001 7.38366 11.2702 7.53675 10.5688C7.68984 9.86733 8.03207 9.22122 8.52632 8.70049C8.76692 8.39341 9.09444 8.16591 9.46619 8.04762C9.83795 7.92934 10.2367 7.92575 10.6105 8.03733C10.9263 8.11628 11.1474 8.57418 11.4316 8.92154C11.6621 9.57365 11.9321 10.2115 12.2368 10.8321C12.468 11.1487 12.5646 11.5439 12.5054 11.9314C12.4463 12.3189 12.2362 12.6673 11.9211 12.9005C11.2105 13.5321 11.3211 14.0531 11.8263 14.7636C12.9433 16.3729 14.4846 17.6409 16.2789 18.4268C16.7842 18.6479 17.1632 18.6952 17.4947 18.1742C17.6368 17.9689 17.8263 17.7952 17.9842 17.6058C18.9 16.4531 18.6158 16.4689 20.0684 17.1005C20.5311 17.2947 20.9795 17.5221 21.4105 17.7794C21.8368 18.0321 22.4842 18.3005 22.5789 18.6794C22.6701 19.0905 22.6461 19.5188 22.5096 19.9172C22.3731 20.3155 22.1294 20.6685 21.8053 20.9373Z" fill="white"/>
</g>
</svg>
