<svg width="16" height="16" viewBox="0 0 16 16" fill="none" xmlns="http://www.w3.org/2000/svg">
<path d="M8.74218 15.9996C9.10568 15.9996 9.38779 15.8077 9.76617 15.433L15.6213 8.93713C15.8958 8.61421 16 8.29167 16 8.00409C16 7.70759 15.8958 7.38504 15.6213 7.06213L9.76617 0.627976C9.34315 0.218006 9.12056 0 8.75675 0C8.24476 0 7.87398 0.488467 7.87398 1.07254V4.36868H7.65867C2.32281 4.36868 0 8.38802 0 14.8315C0 15.5815 0.363809 15.9996 0.756748 15.9996C1.07623 15.9996 1.41756 15.9129 1.66991 15.3549C2.96842 12.5033 4.78683 11.6492 7.65867 11.6492H7.87398V14.9799C7.87398 15.564 8.24476 15.9996 8.74218 15.9996Z" fill="white"/>
</svg>
