<svg width="60" height="60" viewBox="0 0 60 60" fill="none" xmlns="http://www.w3.org/2000/svg">
<mask id="mask0_155_6" style="mask-type:luminance" maskUnits="userSpaceOnUse" x="0" y="0" width="60" height="60">
<path d="M0 0H60V60H0V0Z" fill="white"/>
</mask>
<g mask="url(#mask0_155_6)">
<path d="M35.6526 0.442113L33.8526 0.189481C28.4429 -0.5916 22.9227 0.181129 17.9354 2.41758C12.9481 4.65404 8.69925 8.26207 5.68421 12.8211C2.47628 17.1789 0.563953 22.3539 0.167303 27.7506C-0.229348 33.1473 0.905797 38.5463 3.4421 43.3263C3.70168 43.8054 3.86328 44.3313 3.9175 44.8735C3.97171 45.4157 3.91746 45.9632 3.75789 46.4842C2.46316 50.9368 1.26316 55.4211 0 60.1263L1.57895 59.6526C5.8421 58.5158 10.1053 57.379 14.3684 56.3369C15.2682 56.1498 16.2035 56.2378 17.0526 56.5895C20.8775 58.4562 25.0573 59.4831 29.3117 59.6015C33.5661 59.7198 37.7966 58.9267 41.7193 57.2755C45.642 55.6242 49.166 53.153 52.055 50.0277C54.9441 46.9024 57.1311 43.1953 58.4695 39.1552C59.8079 35.1151 60.2666 30.8354 59.8149 26.6034C59.3631 22.3714 58.0114 18.285 55.8503 14.6184C53.6893 10.9518 50.769 7.78988 47.2854 5.34482C43.8018 2.89976 39.8355 1.22813 35.6526 0.442113ZM43.6105 41.8737C42.4628 42.9012 41.0633 43.6063 39.5544 43.9169C38.0456 44.2275 36.4813 44.1327 35.0211 43.6421C28.4039 41.7788 22.663 37.6271 18.8211 31.9263C17.3535 29.9101 16.1738 27.6994 15.3158 25.3579C14.8511 23.9993 14.7673 22.5394 15.0735 21.1365C15.3797 19.7337 16.0641 18.4415 17.0526 17.4C17.5338 16.7858 18.1889 16.3308 18.9324 16.0943C19.6759 15.8577 20.4734 15.8505 21.2211 16.0737C21.8526 16.2316 22.2947 17.1474 22.8632 17.8421C23.3242 19.1463 23.8642 20.4221 24.4737 21.6632C24.9361 22.2963 25.1292 23.0867 25.0109 23.8618C24.8925 24.6369 24.4724 25.3336 23.8421 25.8C22.4211 27.0632 22.6421 28.1053 23.6526 29.5263C25.8867 32.7447 28.9693 35.2808 32.5579 36.8526C33.5684 37.2947 34.3263 37.3895 34.9895 36.3474C35.2737 35.9369 35.6526 35.5895 35.9684 35.2105C37.8 32.9053 37.2316 32.9368 40.1368 34.2C41.0621 34.5884 41.9589 35.0432 42.821 35.5579C43.6737 36.0632 44.9684 36.6 45.1579 37.3579C45.3402 38.1801 45.2922 39.0367 45.0192 39.8334C44.7462 40.6301 44.2588 41.3361 43.6105 41.8737Z" fill="#E53939"/>
</g>
</svg>
